<?xml version="1.0" encoding="UTF-8"?>
<svg version="1.1" xmlns="http://www.w3.org/2000/svg" width="329" height="60" viewBox="0 0 329 60">
<path d="M0 0 C17.82 0 35.64 0 54 0 C52.01761009 3.96477982 50.21150024 6.03634285 47.10717773 9.13574219 C46.36300095 9.88276649 46.36300095 9.88276649 45.60379028 10.6448822 C43.96856528 12.28380142 42.32627072 13.9154276 40.68359375 15.546875 C39.54505065 16.6842258 38.40687717 17.82194672 37.26905823 18.96002197 C34.88728751 21.34023036 32.5021991 23.71704561 30.11450195 26.09130859 C27.04689127 29.14188153 23.98595316 32.19904455 20.92722988 35.25852585 C18.57960805 37.6058765 16.22939492 39.95061766 13.87828255 42.29447174 C12.74810616 43.42145668 11.61854259 44.54905651 10.4895916 45.67726898 C8.91670712 47.24799766 7.34058219 48.81539632 5.76342773 50.38183594 C4.86567123 51.27578064 3.96791473 52.16972534 3.04295349 53.09075928 C1 55 1 55 0 55 C0 36.85 0 18.7 0 0 Z " fill="#00A9E0" transform="translate(0,0)"/>
<path d="M0 0 C6.991875 -0.12375 6.991875 -0.12375 14.125 -0.25 C15.58437988 -0.28641602 17.04375977 -0.32283203 18.54736328 -0.36035156 C19.70993652 -0.3703418 20.87250977 -0.38033203 22.0703125 -0.390625 C23.84559326 -0.4220459 23.84559326 -0.4220459 25.65673828 -0.45410156 C30.47425411 0.2002419 33.54852703 2.43951082 36.8203125 5.95703125 C38.99623875 9.72527439 39.15720057 13.71156851 39 18 C38.24609375 20.4765625 38.24609375 20.4765625 37.3125 22.8125 C36.40471253 24.95378072 36.40471253 24.95378072 36 27 C37.61037195 29.93043871 37.61037195 29.93043871 40 32 C41.61514979 36.84544936 41.36953618 40.73922951 39.9375 45.625 C37.6330713 49.63916613 35.1924836 52.02993975 31 54 C20.80196097 55.69967317 10.33870828 55 0 55 C0 36.85 0 18.7 0 0 Z M10 8 C10 12.62 10 17.24 10 22 C12.58445773 22.1081866 15.16437352 22.18737237 17.75 22.25 C18.84441406 22.30027344 18.84441406 22.30027344 19.9609375 22.3515625 C23.53084849 22.41646997 25.56841859 22.31757878 28.484375 20.171875 C30.54909509 17.2131524 30.58903864 15.53423186 30 12 C28.54570189 9.66815581 28.54570189 9.66815581 26 8 C23.10550051 7.7093876 20.62050065 7.61813955 17.75 7.75 C17.00492188 7.76804687 16.25984375 7.78609375 15.4921875 7.8046875 C13.66090299 7.85164351 11.83028351 7.92338348 10 8 Z M10 31 C10 35.62 10 40.24 10 45 C20.50353044 45.70295842 20.50353044 45.70295842 30 42 C31.3309316 38.60030189 31.3309316 38.60030189 31 35 C29.61345231 32.61544075 29.61345231 32.61544075 27 31 C24.06606885 30.51771505 21.21300114 30.62224207 18.25 30.75 C17.45722656 30.76804687 16.66445312 30.78609375 15.84765625 30.8046875 C13.89791652 30.85166918 11.94880122 30.92340956 10 31 Z " fill="#ffffff" transform="translate(77,3)"/>
<path d="M0 0 C0 17.82 0 35.64 0 54 C-17.82 54 -35.64 54 -54 54 C-50.37640508 49.77247259 -46.92300898 45.79740746 -43.02026367 41.89086914 C-42.56257599 41.43142914 -42.10488831 40.97198914 -41.6333313 40.49862671 C-40.14735091 39.00830915 -38.6578203 37.52160304 -37.16796875 36.03515625 C-36.12504228 34.9915551 -35.08226421 33.94780563 -34.03962708 32.90391541 C-31.86861311 30.73143614 -29.69582299 28.56075375 -27.52172852 26.39135742 C-24.72947079 23.60483918 -21.94178413 20.81379755 -19.15537548 18.02143192 C-17.01000369 15.87245923 -14.86227171 13.7258582 -12.71380043 11.57998466 C-11.68396843 10.55082104 -10.65488232 9.5209105 -9.62654686 8.49025154 C-8.19769769 7.05887903 -6.76532304 5.63102836 -5.33276367 4.20336914 C-4.51813156 3.38953262 -3.70349945 2.57569611 -2.86418152 1.73719788 C-1 0 -1 0 0 0 Z " fill="#ffffff" transform="translate(60,6)"/>
<path d="M0 0 C0 2.97 0 5.94 0 9 C-0.97582031 8.97679687 -1.95164062 8.95359375 -2.95703125 8.9296875 C-4.22933594 8.91164063 -5.50164062 8.89359375 -6.8125 8.875 C-8.07707031 8.85179687 -9.34164062 8.82859375 -10.64453125 8.8046875 C-14.1338024 8.72418082 -14.1338024 8.72418082 -17 11 C-17.33 12.65 -17.66 14.3 -18 16 C-11.4 16 -4.8 16 2 16 C2 29.2 2 42.4 2 56 C-1.3 56 -4.6 56 -8 56 C-8 45.44 -8 34.88 -8 24 C-11.3 24 -14.6 24 -18 24 C-18 34.56 -18 45.12 -18 56 C-21.3 56 -24.6 56 -28 56 C-28 45.44 -28 34.88 -28 24 C-29.98 24 -31.96 24 -34 24 C-34 21.36 -34 18.72 -34 16 C-32.02 16 -30.04 16 -28 16 C-28.12375 14.205625 -28.12375 14.205625 -28.25 12.375 C-28.22599051 7.85321242 -27.09167504 5.40876992 -24 2 C-17.31268016 -2.36129555 -7.4646301 -2.48821003 0 0 Z " fill="#ffffff" transform="translate(262,2)"/>
<path d="M0 0 C5.55002703 3.31127316 9.88501285 7.6908685 11.58203125 14.0546875 C11.58203125 17.3546875 11.58203125 20.6546875 11.58203125 24.0546875 C1.68203125 24.3846875 -8.21796875 24.7146875 -18.41796875 25.0546875 C-15.08045394 29.90456117 -15.08045394 29.90456117 -10.4296875 31.29296875 C-6.15973157 31.42932028 -4.03333479 31.4565592 -0.35546875 29.0546875 C0.28390625 28.3946875 0.92328125 27.7346875 1.58203125 27.0546875 C4.55396975 28.17920477 6.91643812 29.27762541 9.58203125 31.0546875 C8.91247867 33.73289783 8.24619782 35.55738051 5.99609375 37.2421875 C-1.10100155 41.31478227 -7.92861342 42.39501221 -15.9296875 40.44140625 C-21.86594575 38.15357837 -25.27170955 34.52693118 -28.41796875 29.0546875 C-30.46425662 22.9158239 -30.5236884 15.55451985 -27.79296875 9.6171875 C-22.12132695 -0.02259945 -10.54714594 -4.12343993 0 0 Z M-16.41796875 11.0546875 C-18.91975882 13.65362629 -18.91975882 13.65362629 -19.41796875 17.0546875 C-12.48796875 17.0546875 -5.55796875 17.0546875 1.58203125 17.0546875 C0.4206605 12.40920449 -0.5237348 11.6213417 -4.41796875 9.0546875 C-9.09411822 7.20883903 -12.12485873 8.74912842 -16.41796875 11.0546875 Z " fill="#ffffff" transform="translate(214.41796875,16.9453125)"/>
<path d="M0 0 C3.3 0 6.6 0 10 0 C10.02505615 0.76666992 10.0501123 1.53333984 10.07592773 2.32324219 C10.19201423 5.79899283 10.31468366 9.27448092 10.4375 12.75 C10.47681641 13.9565625 10.51613281 15.163125 10.55664062 16.40625 C10.61948242 18.14648438 10.61948242 18.14648438 10.68359375 19.921875 C10.72025146 20.99018555 10.75690918 22.05849609 10.79467773 23.15917969 C10.96986909 25.58311152 11.31198487 27.67886712 12 30 C16.62885021 30.90761769 19.85025191 31.48984886 24 29 C26.1025436 25.75237881 26.29714986 22.95977126 26.4140625 19.140625 C26.45273438 18.02558594 26.49140625 16.91054688 26.53125 15.76171875 C26.5621875 14.60285156 26.593125 13.44398437 26.625 12.25 C26.66367188 11.07566406 26.70234375 9.90132812 26.7421875 8.69140625 C26.8363982 5.79442732 26.92201602 2.89745374 27 0 C30.3 0 33.6 0 37 0 C37 13.2 37 26.4 37 40 C33.7 40 30.4 40 27 40 C26.67 39.01 26.34 38.02 26 37 C25.505 37.474375 25.01 37.94875 24.5 38.4375 C19.89279654 41.31700216 15.48720819 41.25206918 10.3125 40.375 C5.81492666 38.50808276 3.07232023 36.13695775 0.87548828 31.7590332 C-0.17938894 28.43466971 -0.22603018 25.6544254 -0.1953125 22.16796875 C-0.18886719 20.87568359 -0.18242187 19.58339844 -0.17578125 18.25195312 C-0.15907327 16.8971327 -0.14214342 15.54231499 -0.125 14.1875 C-0.11496003 12.81315749 -0.10583596 11.43880797 -0.09765625 10.06445312 C-0.07411242 6.70945683 -0.04122567 3.35481801 0 0 Z " fill="#ffffff" transform="translate(142,18)"/>
<path d="M0 0 C2.73333857 2.22509875 4.42239841 4.84479681 6 8 C6.08639869 10.40838678 6.11567764 12.78733881 6.09765625 15.1953125 C6.0962413 15.90275604 6.09482635 16.61019958 6.09336853 17.33908081 C6.087766 19.60109669 6.07521318 21.86301398 6.0625 24.125 C6.05748532 25.65755065 6.05292236 27.19010286 6.04882812 28.72265625 C6.03779577 32.48180888 6.02052952 36.24088772 6 40 C3.36 40 0.72 40 -2 40 C-2.01458252 39.23856689 -2.02916504 38.47713379 -2.04418945 37.69262695 C-2.11880541 34.23208112 -2.21542259 30.77248555 -2.3125 27.3125 C-2.33505859 26.11431641 -2.35761719 24.91613281 -2.38085938 23.68164062 C-2.41630859 22.52470703 -2.45175781 21.36777344 -2.48828125 20.17578125 C-2.51446533 19.11270752 -2.54064941 18.04963379 -2.56762695 16.9543457 C-3.0555346 13.62053967 -3.99771691 11.69118218 -6 9 C-8.99631431 7.81724435 -10.57130324 7.89033339 -13.6875 8.6875 C-16.44844392 10.25452222 -16.87764279 11.07378778 -18 14 C-18.36504688 16.90099927 -18.36504688 16.90099927 -18.4140625 20.078125 C-18.47207031 21.81835938 -18.47207031 21.81835938 -18.53125 23.59375 C-18.5621875 24.8003125 -18.593125 26.006875 -18.625 27.25 C-18.68300781 29.08304688 -18.68300781 29.08304688 -18.7421875 30.953125 C-18.83642108 33.9685994 -18.92203455 36.98406828 -19 40 C-22.3 40 -25.6 40 -29 40 C-29 26.8 -29 13.6 -29 0 C-26.36 0 -23.72 0 -21 0 C-20.67 0.66 -20.34 1.32 -20 2 C-18.9171875 1.2884375 -18.9171875 1.2884375 -17.8125 0.5625 C-11.88001254 -2.73332637 -6.2604888 -2.29242858 0 0 Z " fill="#ffffff" transform="translate(303,18)"/>
<path d="M0 0 C3.3 0 6.6 0 10 0 C10 19.14 10 38.28 10 58 C6.7 58 3.4 58 0 58 C0 38.86 0 19.72 0 0 Z " fill="#ffffff" transform="translate(124,0)"/>
<path d="M0 0 C2.50160818 1.87620613 3.61945652 3.23891303 5 6 C5.49267057 10.35192338 5.51752429 12.29982008 2.875 15.875 C-0.3523542 18.26043571 -1.99934285 19 -6 19 C-9.97472063 17.47126129 -11.61853665 16.57219503 -14 13 C-14.46193077 8.01114768 -14.06738634 5.01119752 -11 1 C-7.55258453 -0.72370774 -3.76964661 -0.50306672 0 0 Z M-11 6 C-11.60975382 9.65852292 -11.44543026 11.30512879 -9.4375 14.4375 C-6.97376884 16.33441535 -6.97376884 16.33441535 -3.375 15.9375 C0.25516924 15.3249155 0.25516924 15.3249155 2 12 C2.46649698 8.34577364 2.46996298 6.66142938 0.3125 3.625 C-1.88575314 1.84807743 -1.88575314 1.84807743 -4.5 1.5 C-7.87013879 2.17402776 -9.01677007 3.2087875 -11 6 Z " fill="#ffffff" transform="translate(324,3)"/>
<path d="M0 0 C2.33294775 -0.04241723 4.66702567 -0.04092937 7 0 C8 1 8 1 8.09765625 3.06640625 C8.08605469 3.89011719 8.07445312 4.71382812 8.0625 5.5625 C8.05347656 6.38878906 8.04445313 7.21507812 8.03515625 8.06640625 C8.02355469 8.70449219 8.01195312 9.34257812 8 10 C5 10 5 10 3.3125 8.5 C2.879375 8.005 2.44625 7.51 2 7 C2 7.99 2 8.98 2 10 C1.34 10 0.68 10 0 10 C0 6.7 0 3.4 0 0 Z M2 3 C2 3.66 2 4.32 2 5 C3.32 4.34 4.64 3.68 6 3 C4.68 3 3.36 3 2 3 Z " fill="#ffffff" transform="translate(316,7)"/>
</svg>
