<svg xmlns="http://www.w3.org/2000/svg" width="137.342" height="33.334" viewBox="0 0 137.342 33.334"><path fill="#3351A3" d="M137.342 27.664a5.67 5.67 0 0 1-5.67 5.67H5.669A5.67 5.67 0 0 1 0 27.664V5.67A5.67 5.67 0 0 1 5.669 0h126.003a5.67 5.67 0 0 1 5.67 5.67v21.994z"/><path opacity=".4" fill="#3351A3" d="M2.543 32.393c.779.516 1.674.83 2.604.915l94.885-.061 2.772-4.361-73.94-22.328L2.543 32.393z"/><path fill="#FFF" stroke="#FFF" stroke-width="4" stroke-miterlimit="10" d="M29.45 9.425c0-.804.622-1.424 1.428-1.424h4.928c3.775 0 6.124 2.135 6.124 5.371v.045c0 3.604-2.9 5.485-6.446 5.485h-3.201v3.878c0 .781-.621 1.4-1.404 1.4-.806 0-1.428-.619-1.428-1.4V9.425h-.001zm6.125 6.929c2.142 0 3.477-1.193 3.477-2.868v-.046c0-1.882-1.358-2.869-3.477-2.869h-3.293v5.783h3.293zm7.895 4.223v-.045c0-2.617 2.049-3.902 5.02-3.902 1.358 0 2.325.207 3.27.506v-.299c0-1.721-1.06-2.639-3.017-2.639-1.06 0-1.934.184-2.694.481a1.547 1.547 0 0 1-.438.069 1.158 1.158 0 0 1-1.174-1.142V13.6c0-.504.346-.94.76-1.102 1.151-.436 2.325-.711 3.914-.711 1.819 0 3.178.482 4.03 1.354.897.873 1.312 2.158 1.312 3.741v5.967c0 .757-.599 1.331-1.358 1.331-.806 0-1.358-.551-1.358-1.17v-.459c-.829.986-2.095 1.767-3.96 1.767-2.281 0-4.307-1.307-4.307-3.741zm8.335-.871v-.826c-.714-.275-1.658-.482-2.763-.482-1.796 0-2.855.758-2.855 2.02v.046c0 1.171 1.036 1.836 2.371 1.836 1.842-.001 3.247-1.057 3.247-2.594zm5.961 7.756c-.415-.137-.875-.481-.875-1.146 0-.689.529-1.148 1.128-1.148.23 0 .368.047.507.092.322.092.575.161.967.161.829 0 1.267-.345 1.728-1.285l.092-.253L56.8 13.832a1.849 1.849 0 0 1-.161-.666c0-.78.599-1.354 1.381-1.354.714 0 1.105.412 1.358 1.055l3.27 8.056 3.04-8.056c.23-.573.621-1.055 1.335-1.055.737 0 1.336.573 1.336 1.308 0 .229-.069.528-.115.665L63.798 24.41c-1.036 2.479-2.141 3.396-4.099 3.396-.782.001-1.358-.114-1.933-.344zm12.43-4.521v-.046c0-.527.186-.872.623-1.331l6.469-7.344h-5.732c-.645 0-1.15-.505-1.15-1.124 0-.643.506-1.148 1.15-1.148h8.014c.76 0 1.334.459 1.334 1.102v.069c0 .528-.184.872-.598 1.331l-6.494 7.344h5.986c.646 0 1.152.505 1.152 1.147 0 .62-.506 1.124-1.152 1.124h-8.242c-.784 0-1.36-.481-1.36-1.124zM83.663 8.69c0-.826.691-1.354 1.59-1.354.896 0 1.588.528 1.588 1.354v.137c0 .826-.691 1.377-1.588 1.377-.898 0-1.59-.551-1.59-1.377V8.69zm.207 4.521c0-.78.6-1.399 1.383-1.399.781 0 1.404.619 1.404 1.399v9.593c0 .78-.623 1.377-1.404 1.377a1.37 1.37 0 0 1-1.383-1.357v-9.613zm6.584-4.636c0-.758.6-1.377 1.383-1.377.781 0 1.404.619 1.404 1.377v14.229c0 .78-.623 1.377-1.404 1.377a1.37 1.37 0 0 1-1.383-1.357V8.575zm6.699 18.887c-.414-.137-.875-.481-.875-1.146 0-.689.529-1.148 1.129-1.148.23 0 .367.047.506.092.322.092.576.161.967.161.83 0 1.268-.345 1.729-1.285l.092-.253-4.514-10.051a1.869 1.869 0 0 1-.16-.666c0-.78.598-1.354 1.381-1.354.713 0 1.105.412 1.357 1.055l3.27 8.056 3.041-8.056c.23-.573.621-1.055 1.334-1.055.738 0 1.336.573 1.336 1.308 0 .229-.068.528-.115.665l-4.443 10.626c-1.037 2.479-2.141 3.396-4.1 3.396-.783 0-1.359-.115-1.935-.345z"/><path fill="#3351A3" d="M29.45 9.425c0-.804.622-1.424 1.428-1.424h4.928c3.775 0 6.124 2.135 6.124 5.371v.045c0 3.604-2.9 5.485-6.446 5.485h-3.201v3.878c0 .781-.621 1.4-1.404 1.4-.806 0-1.428-.619-1.428-1.4V9.425h-.001zm6.125 6.929c2.142 0 3.477-1.193 3.477-2.868v-.046c0-1.882-1.358-2.869-3.477-2.869h-3.293v5.783h3.293zm7.895 4.223v-.045c0-2.617 2.049-3.902 5.02-3.902 1.358 0 2.325.207 3.27.506v-.299c0-1.721-1.06-2.639-3.017-2.639-1.06 0-1.934.184-2.694.481a1.547 1.547 0 0 1-.438.069 1.158 1.158 0 0 1-1.174-1.142V13.6c0-.504.346-.94.76-1.102 1.151-.436 2.325-.711 3.914-.711 1.819 0 3.178.482 4.03 1.354.897.873 1.312 2.158 1.312 3.741v5.967c0 .757-.599 1.331-1.358 1.331-.806 0-1.358-.551-1.358-1.17v-.459c-.829.986-2.095 1.767-3.96 1.767-2.281 0-4.307-1.307-4.307-3.741zm8.335-.871v-.826c-.714-.275-1.658-.482-2.763-.482-1.796 0-2.855.758-2.855 2.02v.046c0 1.171 1.036 1.836 2.371 1.836 1.842-.001 3.247-1.057 3.247-2.594zm5.961 7.756c-.415-.137-.875-.481-.875-1.146 0-.689.529-1.148 1.128-1.148.23 0 .368.047.507.092.322.092.575.161.967.161.829 0 1.267-.345 1.728-1.285l.092-.253L56.8 13.832a1.849 1.849 0 0 1-.161-.666c0-.78.599-1.354 1.381-1.354.714 0 1.105.412 1.358 1.055l3.27 8.056 3.04-8.056c.23-.573.621-1.055 1.335-1.055.737 0 1.336.573 1.336 1.308 0 .229-.069.528-.115.665L63.798 24.41c-1.036 2.479-2.141 3.396-4.099 3.396-.782.001-1.358-.114-1.933-.344zm12.43-4.521v-.046c0-.527.186-.872.623-1.331l6.469-7.344h-5.732c-.645 0-1.15-.505-1.15-1.124 0-.643.506-1.148 1.15-1.148h8.014c.76 0 1.334.459 1.334 1.102v.069c0 .528-.184.872-.598 1.331l-6.494 7.344h5.986c.646 0 1.152.505 1.152 1.147 0 .62-.506 1.124-1.152 1.124h-8.242c-.784 0-1.36-.481-1.36-1.124zM83.663 8.69c0-.826.691-1.354 1.59-1.354.896 0 1.588.528 1.588 1.354v.137c0 .826-.691 1.377-1.588 1.377-.898 0-1.59-.551-1.59-1.377V8.69zm.207 4.521c0-.78.6-1.399 1.383-1.399.781 0 1.404.619 1.404 1.399v9.593c0 .78-.623 1.377-1.404 1.377a1.37 1.37 0 0 1-1.383-1.357v-9.613zm6.584-4.636c0-.758.6-1.377 1.383-1.377.781 0 1.404.619 1.404 1.377v14.229c0 .78-.623 1.377-1.404 1.377a1.37 1.37 0 0 1-1.383-1.357V8.575zm6.699 18.887c-.414-.137-.875-.481-.875-1.146 0-.689.529-1.148 1.129-1.148.23 0 .367.047.506.092.322.092.576.161.967.161.83 0 1.268-.345 1.729-1.285l.092-.253-4.514-10.051a1.869 1.869 0 0 1-.16-.666c0-.78.598-1.354 1.381-1.354.713 0 1.105.412 1.357 1.055l3.27 8.056 3.041-8.056c.23-.573.621-1.055 1.334-1.055.738 0 1.336.573 1.336 1.308 0 .229-.068.528-.115.665l-4.443 10.626c-1.037 2.479-2.141 3.396-4.1 3.396-.783 0-1.359-.115-1.935-.345z"/><g fill="#FFF"><path d="M108.775 28.604a9.262 9.262 0 0 0-.535-.232l-2.094-.837.225-.564 1.037.415.002-.008c-.111-.17-.137-.4-.037-.652.174-.434.662-.609 1.217-.383.654.261.814.808.648 1.223-.084.212-.244.386-.51.429l-.004.008.242.124-.191.477zm-.539-.889c.035.015.07.024.104.029a.37.37 0 0 0 .4-.225c.096-.24-.031-.463-.357-.593-.281-.112-.555-.076-.66.187a.377.377 0 0 0 .146.442.473.473 0 0 0 .1.053l.267.107zM108.01 25.253l1 .085c.119.013.268.029.373.045l.004-.012c-.086-.063-.211-.148-.305-.216l-.803-.578.242-.606 1.027.901c.615.549.836.838.936 1.114.092.266.068.496.031.646l-.527-.071a.745.745 0 0 0 .002-.284.721.721 0 0 0-.133-.325.156.156 0 0 0-.07-.063.219.219 0 0 0-.104-.011l-1.924.001.251-.626zM110.33 22.851l.57.435-.232.586-2.197-1.764.297-.743 2.813.225-.244.608-.719-.063-.288.716zm-.17-.804l-.592-.057c-.166-.016-.371-.045-.535-.067l-.002.008c.135.097.309.209.438.308l.471.361.22-.553zM111.354 21.269l-1.238-1.877-.016-.006-.43 1.08-.469-.187.725-1.816.326.131 1.229 1.843.014.006.475-1.185.467.188-.777 1.945-.306-.122zM110.744 17.796l-.268.672-.476-.191.77-1.923.475.189-.271.683 2.025.811-.227.568-2.028-.809zM112.93 15.14l-.369.92.594.237.412-1.027.463.186-.637 1.596-2.502-1 .617-1.544.463.186-.389.976.52.208.367-.921.461.183zM111.684 14.069l.223-.561 1.107.442.004-.012c-.074-.094-.141-.19-.207-.281l-.604-.899.277-.695.734 1.254 1.785-.298-.264.661-1.326.181.178.321.816.327-.223.561-2.5-1.001z"/></g></svg>